<svg xmlns="http://www.w3.org/2000/svg" xmlns:xlink="http://www.w3.org/1999/xlink" width="47.717" height="47.717" viewBox="0 0 47.717 47.717">
  <defs>
    <clipPath id="clip-path">
      <circle id="Ellipse_4" data-name="Ellipse 4" cx="20.786" cy="20.786" r="20.786" transform="matrix(0.161, -0.987, 0.987, 0.161, 0, 41.031)" fill="none"/>
    </clipPath>
  </defs>
  <g id="Group_19" data-name="Group 19" transform="translate(-152.53 -21.699)">
    <circle id="Ellipse_3" data-name="Ellipse 3" cx="20.786" cy="20.786" r="20.786" transform="matrix(0.161, -0.987, 0.987, 0.161, 152.53, 62.73)" fill="#23ad9b"/>
    <g id="Group_18" data-name="Group 18" transform="translate(152.53 21.699)">
      <g id="Group_17" data-name="Group 17" clip-path="url(#clip-path)">
        <g id="Group_16" data-name="Group 16" transform="translate(7.526 7.646)">
          <path id="Path_15" data-name="Path 15" d="M188.517,77.363c-.116.171-.473,14.626,2.067,17.585h14.378s3.926-11.1,1.252-17.585H188.432" transform="translate(-181.698 -62.9)" fill="#0c0200"/>
          <g id="Group_15" data-name="Group 15" transform="translate(0 1.125)">
            <rect id="Rectangle_10" data-name="Rectangle 10" width="7.96" height="5.363" transform="translate(12.582 21.284)" fill="#faac8d"/>
            <path id="Path_16" data-name="Path 16" d="M205.086,101.246a10.706,10.706,0,0,0,3.806.775,12.3,12.3,0,0,0,2.223-.216V97.367h-7.96v2.774A6.649,6.649,0,0,0,205.086,101.246Z" transform="translate(-190.573 -76.083)" fill="#e0e1e3" style="mix-blend-mode: multiply;isolation: isolate"/>
            <g id="Group_13" data-name="Group 13" transform="translate(24.714 10.468)">
              <path id="Path_17" data-name="Path 17" d="M234.165,70.861c.027-.2.362-.519.508-.627a.483.483,0,0,1,.752.321,4.087,4.087,0,0,1,.114.891,3.921,3.921,0,0,1-.379,2.053,2.756,2.756,0,0,1-.947,1.047.338.338,0,0,1-.513-.276S234.165,70.863,234.165,70.861Z" transform="translate(-233.7 -70.137)" fill="#faac8d"/>
              <path id="Path_18" data-name="Path 18" d="M234.193,72.251c.019-.141.259-.371.363-.449a.346.346,0,0,1,.539.23,2.932,2.932,0,0,1,.082.637,2.817,2.817,0,0,1-.272,1.47,1.977,1.977,0,0,1-.678.749.242.242,0,0,1-.367-.2S234.193,72.252,234.193,72.251Z" transform="translate(-233.797 -71.099)" fill="#d5947b"/>
            </g>
            <g id="Group_14" data-name="Group 14" transform="translate(6.357 10.468)">
              <path id="Path_19" data-name="Path 19" d="M188.87,70.861c-.027-.2-.362-.519-.509-.627-.326-.241-.656.007-.751.321a4.064,4.064,0,0,0-.114.891,3.925,3.925,0,0,0,.379,2.053,2.75,2.75,0,0,0,.947,1.047.338.338,0,0,0,.513-.276S188.871,70.863,188.87,70.861Z" transform="translate(-187.484 -70.137)" fill="#faac8d"/>
              <path id="Path_20" data-name="Path 20" d="M189.639,72.251c-.019-.141-.259-.371-.363-.449a.346.346,0,0,0-.538.23,2.982,2.982,0,0,0-.082.637,2.812,2.812,0,0,0,.271,1.47,1.974,1.974,0,0,0,.678.749.242.242,0,0,0,.367-.2S189.64,72.252,189.639,72.251Z" transform="translate(-188.185 -71.099)" fill="#d5947b"/>
            </g>
            <path id="Path_21" data-name="Path 21" d="M208.58,55.615a13.5,13.5,0,0,1-1.447,6.464,12.887,12.887,0,0,1-3.808,4.15c-1.211.882-2.509,1.91-4.04,1.785-1.6-.131-2.841-1.492-4.008-2.554a13.89,13.89,0,0,1-3.734-5.532,12.784,12.784,0,0,1-.718-4.312c0-7.264,3.974-11.834,8.878-11.834S208.58,48.35,208.58,55.615Z" transform="translate(-183.141 -43.781)" fill="#faac8d"/>
            <path id="Path_22" data-name="Path 22" d="M200.152,113.039l-8.643-2.594h-6.935l-8.644,2.594a8.322,8.322,0,0,0-4.451,7.095H204.6A8.321,8.321,0,0,0,200.152,113.039Z" transform="translate(-171.479 -83.966)" fill="#faac8d"/>
            <path id="Path_23" data-name="Path 23" d="M200.152,114.8l-4.78-1.434-7.331,7.326-7.353-7.32L175.93,114.8a8.322,8.322,0,0,0-4.451,7.095H204.6A8.321,8.321,0,0,0,200.152,114.8Z" transform="translate(-171.479 -85.727)" fill="#e4393d"/>
          </g>
          <path id="Path_24" data-name="Path 24" d="M198.007,44.959s4.276,6.781,14.875,7.934c0,0,2.006-7.724-5.45-11.48A7.726,7.726,0,0,0,198.007,44.959Z" transform="translate(-187.47 -40.949)" fill="#2d1a10"/>
          <path id="Path_25" data-name="Path 25" d="M194.607,48.738s-2.761,1.786-3.959,6.771c0,0-1.285-9.394,5.36-10.567Z" transform="translate(-182.974 -43.356)" fill="#2d1a10"/>
          <path id="Path_26" data-name="Path 26" d="M225.538,58s2.846,18.1-1.65,23.219c0,0,5.747-.854,6.032-8.764,0,0,1.024-16.162-2.866-21.74Z" transform="translate(-203.071 -46.834)" fill="#2d1a10"/>
          <path id="Path_27" data-name="Path 27" d="M189.66,77.886s-6.618-.784-4.8-21.136c0,0,.456-11.3,7.074-11.563l-.383,4.289s-3.8,1.133-3.313,10.076C188.242,59.552,187.855,73.959,189.66,77.886Z" transform="translate(-179.356 -43.504)" fill="#2d1a10"/>
        </g>
      </g>
    </g>
  </g>
</svg>
