<svg xmlns="http://www.w3.org/2000/svg" width="33.164" height="33.164" viewBox="0 0 33.164 33.164">
  <path id="help-circle" d="M34.164,17.582a16.583,16.583,0,1,0-4.857,11.725A16.531,16.531,0,0,0,34.164,17.582Zm-3.015,0a13.567,13.567,0,1,1-3.974-9.593A13.518,13.518,0,0,1,31.149,17.582ZM14.617,13.56a3.011,3.011,0,0,1,5.427-.549,3.086,3.086,0,0,1,.431,1.563,1.541,1.541,0,0,1-.176.7,2.91,2.91,0,0,1-.555.739,8.293,8.293,0,0,1-2.76,1.646,1.507,1.507,0,1,0,.954,2.86,11.32,11.32,0,0,0,3.939-2.374A5.9,5.9,0,0,0,23,16.622a4.577,4.577,0,0,0,.494-2.064,6.119,6.119,0,0,0-.855-3.089,6.027,6.027,0,0,0-10.863,1.09,1.507,1.507,0,1,0,2.843,1Zm2.965,13.066a1.507,1.507,0,1,0-1.507-1.507A1.508,1.508,0,0,0,17.582,26.626Z" transform="translate(-1 -1)" fill="#fff"/>
</svg>
