<svg xmlns="http://www.w3.org/2000/svg" width="29.018" height="33.163" viewBox="0 0 29.018 33.163">
  <path id="bell-regular" d="M28.46,23.466c-1.251-1.345-3.593-3.368-3.593-9.994A10.229,10.229,0,0,0,16.58,3.423V2.073a2.071,2.071,0,1,0-4.143,0v1.35A10.229,10.229,0,0,0,4.15,13.473c0,6.626-2.342,8.649-3.593,9.994A2.024,2.024,0,0,0,0,24.873a2.075,2.075,0,0,0,2.079,2.073h24.86a2.074,2.074,0,0,0,2.079-2.073A2.023,2.023,0,0,0,28.46,23.466Zm-24.086.37c1.374-1.812,2.877-4.815,2.884-10.326,0-.013,0-.025,0-.038a7.255,7.255,0,1,1,14.509,0c0,.013,0,.025,0,.038.007,5.512,1.51,8.515,2.884,10.326Zm10.135,9.327a4.145,4.145,0,0,0,4.143-4.145H10.365A4.145,4.145,0,0,0,14.508,33.163Z" transform="translate(0.001)" fill="#fff"/>
</svg>
