<svg xmlns="http://www.w3.org/2000/svg" width="30" height="33.163" viewBox="0 0 30 33.163">
  <g id="avatar" transform="translate(-36.073)">
    <g id="Group_3" data-name="Group 3" transform="translate(36.073)">
      <path id="Path_4" data-name="Path 4" d="M145.01,17.869h.247a7.563,7.563,0,0,0,5.447-2.095c2.975-2.981,2.48-8.09,2.426-8.578A6.907,6.907,0,0,0,149.384.968,9.437,9.437,0,0,0,145.227,0H145.1a9.485,9.485,0,0,0-4.157.941A6.918,6.918,0,0,0,137.145,7.2c-.054.488-.549,5.6,2.426,8.578A7.532,7.532,0,0,0,145.01,17.869Zm-5.8-10.5c0-.021.008-.041.008-.055.255-4.924,4.188-5.453,5.872-5.453h.093c2.086.041,5.633.8,5.872,5.453a.12.12,0,0,0,.008.055c.008.048.549,4.718-1.908,7.177a5.385,5.385,0,0,1-3.979,1.47H145.1a5.367,5.367,0,0,1-3.971-1.47C138.675,12.1,139.2,7.41,139.208,7.369Z" transform="translate(-130.145)" fill="#fff"/>
      <path id="Path_5" data-name="Path 5" d="M66.071,267.784v-.021c0-.055-.007-.11-.007-.172-.044-1.36-.139-4.539-3.309-5.556l-.073-.021a21.677,21.677,0,0,1-6.062-2.6,1.025,1.025,0,0,0-1.373.227.892.892,0,0,0,.241,1.291,23.4,23.4,0,0,0,6.668,2.864c1.7.57,1.892,2.28,1.943,3.846a1.3,1.3,0,0,0,.007.172,11.737,11.737,0,0,1-.153,2.122,28.226,28.226,0,0,1-12.876,2.816,28.389,28.389,0,0,1-12.884-2.823,11.109,11.109,0,0,1-.153-2.122c0-.055.007-.11.007-.172.051-1.566.241-3.276,1.943-3.846a23.615,23.615,0,0,0,6.668-2.864.892.892,0,0,0,.241-1.291,1.025,1.025,0,0,0-1.373-.227,21.44,21.44,0,0,1-6.062,2.6c-.029.007-.051.014-.073.021-3.17,1.023-3.265,4.2-3.309,5.556a1.3,1.3,0,0,1-.007.172v.021a9.931,9.931,0,0,0,.372,3.111.9.9,0,0,0,.38.433c.219.137,5.47,3.283,14.257,3.283s14.038-3.152,14.257-3.283a.934.934,0,0,0,.38-.433A10.416,10.416,0,0,0,66.071,267.784Z" transform="translate(-36.073 -241.44)" fill="#fff"/>
    </g>
  </g>
</svg>
